<svg xmlns="http://www.w3.org/2000/svg" version="1.1" xmlns:xlink="http://www.w3.org/1999/xlink" xmlns:svgjs="http://svgjs.com/svgjs" width="1440" height="560" preserveAspectRatio="none" viewBox="0 0 1440 560"><g mask="url(&quot;#SvgjsMask1032&quot;)" fill="none"><rect width="1440" height="560" x="0" y="0" fill="rgba(32, 32, 32, 1)"></rect><path d="M743.94 628.84C846.3 626.9 918.05 501.65 1130.42 493.37 1342.78 485.09 1406.16 282.35 1516.89 274.97" stroke="rgba(83, 88, 94, 0.55)" stroke-width="2"></path><path d="M574.07 611.8C717.22 589.71 796.04 246.65 1023.54 246.22 1251.05 245.79 1347.62 464.13 1473.02 470.22" stroke="rgba(83, 88, 94, 0.55)" stroke-width="2"></path><path d="M330 568.63C453.86 565.84 560.73 395.64 794.31 395.48 1027.9 395.32 1026.47 465.48 1258.63 465.48 1490.78 465.48 1605.55 395.68 1722.94 395.48" stroke="rgba(83, 88, 94, 0.55)" stroke-width="2"></path><path d="M639.42 566.73C716.58 563.85 691.9 447.06 921.02 439.86 1150.14 432.66 1332.23 214.61 1484.22 210.26" stroke="rgba(83, 88, 94, 0.55)" stroke-width="2"></path><path d="M617.24 607.77C743.3 594.14 797.59 333.17 1034.2 319.02 1270.81 304.87 1339.33 159.45 1451.16 156.62" stroke="rgba(83, 88, 94, 0.55)" stroke-width="2"></path></g><defs><mask id="SvgjsMask1032"><rect width="1440" height="560" fill="#ffffff"></rect></mask></defs></svg>