<svg xmlns="http://www.w3.org/2000/svg" version="1.1" xmlns:xlink="http://www.w3.org/1999/xlink" xmlns:svgjs="http://svgjs.com/svgjs" width="1440" height="560" preserveAspectRatio="none" viewBox="0 0 1440 560"><g mask="url(&quot;#SvgjsMask1020&quot;)" fill="none"><rect width="1440" height="560" x="0" y="0" fill="url(#SvgjsLinearGradient1021)"></rect><path d="M0 0L78.76 0L0 13z" fill="rgba(255, 255, 255, .1)"></path><path d="M0 13L78.76 0L380.9 0L0 117.35z" fill="rgba(255, 255, 255, .075)"></path><path d="M0 117.35L380.9 0L624.6899999999999 0L0 375.63z" fill="rgba(255, 255, 255, .05)"></path><path d="M0 375.63L624.6899999999999 0L1100.61 0L0 431.37z" fill="rgba(255, 255, 255, .025)"></path><path d="M1440 560L1324.77 560L1440 396.4z" fill="rgba(0, 0, 0, .1)"></path><path d="M1440 396.4L1324.77 560L753.61 560L1440 211.09999999999997z" fill="rgba(0, 0, 0, .075)"></path><path d="M1440 211.10000000000002L753.61 560L318.31 560L1440 123.39000000000003z" fill="rgba(0, 0, 0, .05)"></path><path d="M1440 123.39000000000004L318.30999999999995 560L295.43999999999994 560L1440 49.460000000000036z" fill="rgba(0, 0, 0, .025)"></path></g><defs><mask id="SvgjsMask1020"><rect width="1440" height="560" fill="#ffffff"></rect></mask><linearGradient x1="15.28%" y1="139.29%" x2="84.72%" y2="-39.29%" gradientUnits="userSpaceOnUse" id="SvgjsLinearGradient1021"><stop stop-color="rgba(246, 246, 246, 1)" offset="0"></stop><stop stop-color="rgba(246, 246, 246, 1)" offset="0"></stop><stop stop-color="rgba(246, 246, 246, 1)" offset="0"></stop><stop stop-color="rgba(246, 246, 246, 1)" offset="0.01"></stop></linearGradient></defs></svg>