<svg xmlns="http://www.w3.org/2000/svg" version="1.1" xmlns:xlink="http://www.w3.org/1999/xlink" xmlns:svgjs="http://svgjs.com/svgjs" width="1440" height="560" preserveAspectRatio="none" viewBox="0 0 1440 560"><g mask="url(&quot;#SvgjsMask1004&quot;)" fill="none"><rect width="1440" height="560" x="0" y="0" fill="url(#SvgjsLinearGradient1005)"></rect><path d="M1440 0L1108.76 0L1440 278.46z" fill="rgba(255, 255, 255, .1)"></path><path d="M1108.76 0L1440 278.46L1440 372.76L834.9200000000001 0z" fill="rgba(255, 255, 255, .075)"></path><path d="M834.9200000000001 0L1440 372.76L1440 395.83L706.5000000000001 0z" fill="rgba(255, 255, 255, .05)"></path><path d="M706.5000000000001 0L1440 395.83L1440 431.45L314.8800000000001 0z" fill="rgba(255, 255, 255, .025)"></path><path d="M0 560L518.79 560L0 554.71z" fill="rgba(0, 0, 0, .1)"></path><path d="M0 554.71L518.79 560L624.25 560L0 379.41z" fill="rgba(0, 0, 0, .075)"></path><path d="M0 379.40999999999997L624.25 560L733.09 560L0 348.46z" fill="rgba(0, 0, 0, .05)"></path><path d="M0 348.46000000000004L733.09 560L1130.91 560L0 195.35000000000002z" fill="rgba(0, 0, 0, .025)"></path></g><defs><mask id="SvgjsMask1004"><rect width="1440" height="560" fill="#ffffff"></rect></mask><linearGradient x1="50%" y1="100%" x2="50%" y2="0%" gradientUnits="userSpaceOnUse" id="SvgjsLinearGradient1005"><stop stop-color="#0e2a47" offset="0"></stop><stop stop-color="rgba(32, 32, 32, 1)" offset="1"></stop></linearGradient></defs></svg>